<?xml version="1.0"?>
<svg xmlns="http://www.w3.org/2000/svg" viewBox="0 0 64 64" width="512" height="512"><g id="solid"><path d="M51,26a10.944,10.944,0,0,0-4.135.813l-3.679-8.584,1.521-1.522a1,1,0,0,0,.263-.95l-1-4A1,1,0,0,0,43,11H32v2H42.219l.674,2.693-1.6,1.6a1,1,0,0,0-.212,1.1l.7,1.635a38.17,38.17,0,0,0-17.038,4.5l-1.056-2.871-1.876.69,1.171,3.187a39.924,39.924,0,0,0-3.645,2.493,11,11,0,1,0,4.3,11.731c.864.081,1.716.148,2.53.189A2.989,2.989,0,0,0,29,42c.04,0,.078-.01.118-.012l.953,2.384A1,1,0,0,0,31,45h4V43H31.677l-.7-1.757A2.982,2.982,0,0,0,32,39c0-.068-.016-.132-.02-.2,2.573-1.654,4.42-4.755,6.11-7.6,1.875-3.15,3.648-6.122,5.825-6.2l1.171,2.733A10.982,10.982,0,1,0,51,26ZM13,45a8,8,0,1,1,3.91-14.972,34.814,34.814,0,0,0-5.758,6.442,1,1,0,0,0,.652,1.51c.263.053,4.34.86,8.821,1.436A8.012,8.012,0,0,1,13,45Zm7.978-7.557c-2.878-.368-5.619-.838-7.253-1.135a36.451,36.451,0,0,1,4.808-5.072A7.972,7.972,0,0,1,21,37C21,37.149,20.986,37.3,20.978,37.443Zm5.223.5c-.719-.038-1.473-.1-2.24-.168.018-.257.039-.513.039-.775a10.955,10.955,0,0,0-3.116-7.654c.868-.649,1.786-1.3,2.8-1.918L27.09,36.7A3,3,0,0,0,26.2,37.943Zm10.171-7.761c-1.565,2.63-3.177,5.293-5.225,6.728A2.986,2.986,0,0,0,29,36c-.012,0-.024,0-.036,0l-3.527-9.593a36.316,36.316,0,0,1,17.193-4.4L43.1,23.1C40.262,23.662,38.365,26.833,36.372,30.182ZM51,45a7.99,7.99,0,0,1-4.71-14.452l.791,1.846a.92.92,0,0,0,.062.121l3,5,1.714-1.03-2.964-4.941-.846-1.972A8,8,0,1,1,51,45Z"/><path d="M20,17l-.946-.315A1.56,1.56,0,0,0,17.7,19.463l1.151.767a3,3,0,0,0,2.488.389l4.839-1.383A1.14,1.14,0,0,0,25.86,17Z"/></g></svg>
